<svg xmlns="http://www.w3.org/2000/svg" id="Lager_1" data-name="Lager 1" viewBox="0 0 566.75 156.43"><defs><style>.cls-2{fill:#ffa022}</style></defs><circle cx="78.22" cy="78.22" r="78.22" class="cls-2"/><path d="M78.29 9.2C40.26 9.2 9.43 40.03 9.43 78.05s30.83 68.86 68.86 68.86 68.86-30.83 68.86-68.86S116.32 9.2 78.29 9.2M27.78 110.82a60.4 60.4 0 0 1-4.96-9.34c-3.14-7.42-4.73-15.3-4.73-23.43s1.59-16.01 4.73-23.43c3.03-7.17 7.37-13.6 12.9-19.14a60 60 0 0 1 19.14-12.9c7.42-3.14 15.3-4.73 23.43-4.73s16.01 1.59 23.43 4.73c7.17 3.03 13.6 7.37 19.14 12.9 5.53 5.53 9.53 11.97 12.56 19.14 2.22 5.24 3.97 10.72 3.97 16.35s-16.89 4.38-16.89 4.38h.17l-12.23-13.8c-.73-16.1-13.93-28.93-30.2-28.93S47.98 46.18 47.98 62.91c0 4.49.99 8.76 2.75 12.59L36.1 98.02s-.02.03-.03.05l-8.28 12.75Zm70.73-29.81 6.19-10.72 6.67 7.45-12.86 3.25ZM83.13 65.95c-.82-1.2-2.18-1.9-3.63-1.89-1.45.02-2.79.76-3.58 1.97L66.26 80.9l-1.47 2.25s-3.34-6.28-5.01-9.02c-.26-.43-1.09-2.02-1.25-2.38a21.5 21.5 0 0 1-1.86-9.36c.13-5.43 2.32-10.65 6.12-14.55 4.06-4.17 9.5-6.5 15.3-6.55 5.72-.05 11.27 2.18 15.36 6.19 3.23 3.17 5.34 7.17 6.13 11.52.26 1.41-.01 2.87-.73 4.12l-8.09 13.99-7.62-11.15Zm2.1 18.44L72.16 87.7l7.47-11.5 5.59 8.18Zm-26.19 6.64-9.66 2.45L55.54 84Zm74.38 11.41c-3 6.78-7.24 12.89-12.53 18.18a60 60 0 0 1-19.16 12.9c-7.42 3.14-15.31 4.73-23.44 4.73s-16.02-1.59-23.43-4.73a60 60 0 0 1-19.14-12.9c-.81-.81-1.6-1.65-2.36-2.5s9.05-13.91 9.05-13.91l20.57-5 5.26 10.45 5.37-8.71-2.04-4.13 9.12-2.32-5.52 9.53-5.2 8.97-4.8 8.31a4.333 4.333 0 0 0 1.58 5.92c.68.39 1.43.58 2.17.58 1.5 0 2.95-.77 3.75-2.16l5.97-10.32.04-.07 13.74-23.75 46.03-11.69c-.13 4.5-.74 8.91-1.84 13.2l-6.69-7.49-9.55 2.31 13.04 14.6Z" style="fill:#fbfafa"/><path d="M238.48 97.63c-.6-3.28-6.55-37.98-6.55-37.98s-.3-6.26-8.64-6.26h-8.64s-6.4-.3-9.68 7-16.23 36.94-16.23 36.94-1.34 7.6 3.28 8.64 7.89-.89 9.09-3.72c1.19-2.83 2.23-6.11 2.23-6.11h19.21l.74 4.02s1.34 6.83 7.6 6.09c6.26-.73 8.19-5.35 7.6-8.63Zm-30.53-12.22 9.53-22.49 3.72 22.49h-13.26ZM244.32 98.2l5.51-41.45c.13-.98.44-1.93.92-2.79 1.05-1.86 3.3-4.47 7.69-4.56 6.85-.15 6.85 7.89 6.4 11.02l-5.66 39.63c-.21 1.47-.82 2.87-1.79 3.99-1.32 1.51-3.59 2.88-7.29 2-6.58-1.55-5.97-6.72-5.83-7.53.02-.1.03-.2.05-.31M266.11 98.2l5.51-41.45c.13-.98.44-1.93.92-2.79 1.05-1.86 3.3-4.47 7.69-4.56 6.85-.15 6.85 7.89 6.4 11.02l-5.66 39.63c-.21 1.47-.82 2.87-1.79 3.99-1.32 1.51-3.59 2.88-7.29 2-6.58-1.55-5.97-6.72-5.83-7.53.02-.1.03-.2.05-.31M292.4 76.08l-2.23 17.43s.6 9.98 7.15 11.77 16.83 1.94 18.77-5.21-3.72-7.45-6.4-5.96-4.32-.6-4.02-3.87 2.09-14.89 2.09-14.89h7.6s4.47-.3 4.62-4.77-3.28-4.77-5.21-4.77h-5.36l.45-6.7s.45-3.87-3.72-3.43c-4.17.45-4.02 1.94-6.55 4.91-2.53 2.98-2.53 5.06-7.74 6.4s-4.47 8.19.6 9.09ZM387.98 76.08l-2.23 17.43s.6 9.98 7.15 11.77 16.83 1.94 18.77-5.21-3.72-7.45-6.4-5.96-4.32-.6-4.02-3.87c.3-3.28 2.09-14.89 2.09-14.89h7.6s4.47-.3 4.62-4.77-3.28-4.77-5.21-4.77h-5.36l.45-6.7s.45-3.87-3.72-3.43c-4.17.45-4.02 1.94-6.55 4.91-2.53 2.98-2.53 5.06-7.74 6.4s-4.47 8.19.6 9.09ZM478.58 98.2l5.51-41.45c.13-.98.44-1.93.92-2.79 1.05-1.86 3.3-4.47 7.69-4.56 6.85-.15 6.85 7.89 6.4 11.02l-5.66 39.63c-.21 1.47-.82 2.87-1.79 3.99-1.32 1.51-3.59 2.88-7.29 2-6.58-1.55-5.97-6.72-5.83-7.53.02-.1.03-.2.05-.31M500.37 98.2l5.51-41.45c.13-.98.44-1.93.92-2.79 1.05-1.86 3.3-4.47 7.69-4.56 6.85-.15 6.85 7.89 6.4 11.02l-5.66 39.63c-.21 1.47-.82 2.87-1.79 3.99-1.32 1.51-3.59 2.88-7.29 2-6.58-1.55-5.97-6.72-5.83-7.53.02-.1.03-.2.05-.31M468.26 65.23c-4.23-.35-5.4 5.22-5.71 7.6-.04.32-.46.4-.62.12-3.5-6.22-5.19-9.14-15.42-7.73-10.72 1.47-14.74 13.27-15.34 23.85-.6 10.57 4.02 15.79 12.96 17.12 6.85 1.02 11.33-4.24 13.06-6.75.19-.28.62-.13.61.2-.08 2.11.54 5.82 5.7 6.55 7.3 1.03 8.34-4.61 8.34-4.61s2.68-16.68 3.72-26.21-1.94-9.68-7.3-10.13Zm-9.38 20.36c-.15 4.96-2.98 11.52-8.04 10.62-5.06-.89-5.28-7.19-4.62-10.62 0 0 1.2-11.27 7.23-11.27s5.58 6.31 5.43 11.27M559.25 65.23c-4.23-.35-5.4 5.22-5.71 7.6-.04.32-.46.4-.62.12-3.5-6.22-5.19-9.14-15.42-7.73-10.72 1.47-14.74 13.27-15.34 23.85-.6 10.57 4.02 15.79 12.96 17.12 6.85 1.02 11.33-4.24 13.06-6.75.19-.28.62-.13.61.2-.08 2.11.54 5.82 5.7 6.55 7.3 1.03 8.34-4.61 8.34-4.61s2.68-16.68 3.72-26.21-1.94-9.68-7.3-10.13Zm-9.38 20.36c-.15 4.96-2.98 11.52-8.04 10.62-5.06-.89-5.28-7.19-4.62-10.62 0 0 1.2-11.27 7.23-11.27s5.58 6.31 5.43 11.27M372.53 65.23c-4.23-.35-5.4 5.22-5.71 7.6-.04.32-.46.4-.62.12-3.5-6.22-5.19-9.14-15.42-7.73-10.72 1.47-14.74 13.27-15.34 23.85-.6 10.57 4.02 15.79 12.96 17.12 6.85 1.02 11.33-4.24 13.06-6.75.19-.28.62-.13.61.2-.08 2.11.54 5.82 5.7 6.55 7.3 1.03 8.34-4.61 8.34-4.61s2.68-16.68 3.72-26.21-1.94-9.68-7.3-10.13Zm-9.39 20.36c-.15 4.96-2.98 11.52-8.04 10.62-5.06-.89-5.28-7.19-4.62-10.62 0 0 1.2-11.27 7.23-11.27s5.58 6.31 5.43 11.27M360.58 44.34c-5.06 0-9.17 4.1-9.17 9.17s4.1 9.17 9.17 9.17 9.17-4.1 9.17-9.17-4.1-9.17-9.17-9.17m0 13.54c-2.25 0-4.07-1.96-4.07-4.37s1.82-4.37 4.07-4.37 4.07 1.96 4.07 4.37-1.82 4.37-4.07 4.37" class="cls-2"/></svg>