<svg xmlns="http://www.w3.org/2000/svg" xml:space="preserve" viewBox="0 0 1080 1080"><style>.st2{fill:#fff}</style><g id="Layer_2"><path d="M880.3 691.29q-1.035.615-.99-.84l.78-32.5c.01-.38.15-.84.44-1.38l50.21-119.22q1.35-3.045 2.25-7.32t.96-7.2c.09-5.15-1.12-9.29-3.64-12.44-2.53-3.16-5.79-3.83-9.81-1.99-3.92 1.79-7.3 5.43-10.14 10.94-2.86 5.54-4.36 11.6-4.5 18.16l-.29 13.42c-.02.92-.35 1.53-1 1.85l-22.23 10.84c-.54.26-.8-.07-.78-1.01l.33-13.71c.25-10.42 2.32-20.73 6.19-30.89 3.84-10.08 8.72-18.84 14.62-26.28 5.83-7.36 11.97-12.4 18.4-15.16 6.73-2.89 12.73-3.07 18.03-.58 5.25 2.47 9.38 6.91 12.43 13.32 3.03 6.38 4.48 14.08 4.34 23.13-.09 5.75-.87 11.93-2.33 18.55-1.47 6.64-3.45 12.86-5.93 18.66l-37 89.99 42.23-23.78c.48-.27.72-.05.71.66l-.47 30.38c-.01.9-.26 1.49-.75 1.78ZM998.6 623.88c-5.95 3.54-11.46 4.42-16.49 2.63q-7.62-2.715-12.21-11.88c-3.06-6.13-4.53-13.97-4.4-23.48l.99-82.47c.13-9.47 1.82-18.88 5.05-28.17 3.21-9.22 7.39-17.26 12.53-24.13 5.09-6.79 10.54-11.42 16.36-13.92 5.86-2.52 11.13-2.54 15.83-.12 4.66 2.41 8.34 6.68 11.06 12.8 2.7 6.1 4.02 13.67 3.97 22.73l-.03 4.86c0 .65-.27 1.1-.78 1.35l-17.74 8.53c-.43.21-.64-.02-.64-.68l.04-4.96c.05-5.44-1.07-9.56-3.35-12.37-2.29-2.81-5.17-3.43-8.67-1.83-3.41 1.56-6.36 4.87-8.84 9.93-2.5 5.09-3.79 10.44-3.85 16.01l-.2 17.54c4.07-4.52 8.25-7.82 12.56-9.92 5.91-2.88 11.22-3.24 15.96-1.12 4.7 2.11 8.38 6.21 11.07 12.29 2.67 6.07 3.98 13.61 3.92 22.64l-.1 15.32c-.06 8.92-1.5 17.95-4.35 27.1-2.87 9.22-6.68 17.5-11.46 24.83-4.83 7.43-10.24 12.93-16.23 16.49m.31-30.91c3.44-1.94 6.35-5.53 8.74-10.77 2.38-5.2 3.59-10.57 3.64-16.13l.14-15.62c.05-5.36-1.08-9.39-3.38-12.11-2.31-2.72-5.16-3.22-8.57-1.46-3.44 1.77-6.41 5.25-8.92 10.44-2.52 5.23-3.82 10.67-3.89 16.34l-.19 16c-.06 5.52 1.13 9.62 3.57 12.28 2.45 2.65 5.4 2.99 8.86 1.03M44.88 549.85c-.31-.06-.46-.48-.46-1.27l.23-162.18c0-.63.15-.93.46-.89l22.5 2.66c4.51.53 8.55 3.21 12.13 8.02 3.59 4.84 6.43 10.99 8.52 18.47 2.09 7.49 3.13 15.5 3.13 24.01 0 6.91-.78 13.22-2.35 18.92s-3.43 10.23-5.59 13.59c2.32 5 4.12 10.65 5.41 16.94 1.28 6.31 1.93 12.83 1.93 19.57 0 9.31-1.13 17.62-3.37 24.92-2.24 7.29-5.26 12.86-9.05 16.71-3.78 3.84-7.96 5.33-12.53 4.46Zm13.65-26.41 7.3 1.29q4.26.75 7.35-5.04c2.06-3.87 3.1-8.68 3.1-14.42s-1.03-10.86-3.1-15.34q-3.09-6.705-7.35-7.38l-7.19-1.14Zm.12-70.76 8.96 1.31c2.76.4 5-1.22 6.7-4.88 1.71-3.66 2.56-7.81 2.56-12.44 0-5.11-.91-9.66-2.74-13.65-1.82-3.98-4-6.14-6.53-6.47l-8.96-1.17ZM100.12 560.26c-.41-.08-.61-.52-.61-1.32l.12-166.02c0-.64.16-.95.49-.91l13.7 1.62c.33.04.49.38.49 1.03l.12 167.08c0 .81-.17 1.18-.49 1.12ZM125.81 565.11c-.33-.06-.5-.5-.5-1.32l.12-167.56c0-.81.21-1.2.62-1.15l13.87 1.64c.42.05.63.48.63 1.3l-.13 139.6 26.18 4.61c.43.08.64.53.64 1.36v28.08c0 .83-.22 1.2-.64 1.12Z" class="st2"/><path d="M170.39 652.48c-4.95-.85-9.37-3.84-13.27-8.94-3.89-5.09-6.94-11.7-9.16-19.82-2.21-8.11-3.32-16.99-3.32-26.66v-11.5c0-.66.17-.97.52-.92l14.78 3.25c.35.05.53.5.53 1.33v10.24c0 6.21.92 11.38 2.77 15.53 1.85 4.16 4.23 6.47 7.15 6.93 2.66.42 4.96-1.31 6.92-5.22s2.94-8.66 2.94-14.24V403.02c0-.67.18-.99.54-.95l15.08 1.78c.36.04.54.49.54 1.34l.14 199.74c0 9.36-1.2 17.8-3.59 25.32-2.39 7.5-5.55 13.3-9.49 17.38-3.93 4.05-8.29 5.67-13.08 4.85M207.42 583.3c-.37-.07-.55-.53-.55-1.38l.14-175.98c0-.68.18-1 .55-.96l44.63 5.27c.38.04.57.5.57 1.37v29.21c0 .7-.19 1.02-.57.97l-28.68-3.74v40.22l28.68 4.18c.38.05.57.43.57 1.13l.14 29.49c0 .7-.19 1.01-.57.95l-28.82-4.55v45.12l28.82 5.06c.38.07.57.53.57 1.4v29.73c0 .7-.19 1.01-.57.94ZM279.92 596.92c-.39-.07-.58-.55-.58-1.43V445.33l-18.64-2.43c-.48-.06-.71-.53-.71-1.4l.14-29.27c0-.69.19-1.02.57-.98l55.25 6.53c.49.06.74.45.74 1.16v29.92c0 .89-.2 1.31-.59 1.26l-19.31-2.52.15 151.18c0 .89-.2 1.29-.59 1.22ZM344.61 607.7c-.4-.08-.6-.56-.6-1.46V452.93l-19.43-2.54c-.5-.06-.74-.54-.74-1.43l.15-29.88c0-.71.2-1.04.59-1l57.6 6.82c.52.06.78.46.78 1.18v30.56c0 .91-.21 1.34-.62 1.28l-20.14-2.63.15 154.38c0 .91-.2 1.32-.61 1.24ZM420.53 627c-5.7-1.08-10.89-4.58-15.55-10.5-4.65-5.89-8.35-13.24-11.1-22.04-2.75-8.78-4.12-18.17-4.12-28.19v-12.56c0-.91.26-1.32.78-1.24l17.51 2.87c.42.07.63.56.63 1.48v12.65c0 6.05 1.15 11.43 3.47 16.15s5.11 7.38 8.39 7.96 6.1-1.13 8.44-5.16 3.52-9 3.52-14.92c0-6.84-2.56-13.18-7.67-19-1.7-1.93-4.35-4.94-7.94-9.02-3.59-4.06-6.95-7.9-10.1-11.51-5.75-6.75-10-14.75-12.76-24.02-2.75-9.24-4.12-19.41-4.12-30.52 0-10.2 1.4-19.17 4.2-26.92 2.81-7.77 6.53-13.75 11.18-17.95 4.67-4.21 9.75-6 15.24-5.35 5.62.66 10.81 3.72 15.57 9.19 4.77 5.49 8.59 12.55 11.45 21.18 2.86 8.65 4.3 18.1 4.3 28.35v22.91c0 .75-.22 1.09-.65 1.02l-18.07-2.63c-.43-.06-.64-.46-.64-1.2l-.16-22.77c0-6.47-1.17-11.9-3.52-16.28q-3.51-6.54-8.28-7.17c-3.28-.42-6.08 1.38-8.39 5.39s-3.47 8.94-3.47 14.81c0 6.05.73 11.2 2.21 15.44q2.205 6.375 8.07 12.75c.53.63 1.56 1.75 3.1 3.36s3.21 3.43 5.02 5.45c1.81 2.03 3.44 3.8 4.88 5.31s2.32 2.48 2.64 2.9c5.36 6.01 9.6 13.02 12.73 21.04 3.13 8.04 4.71 17.56 4.71 28.55 0 10.62-1.44 19.91-4.3 27.87-2.86 7.94-6.68 13.93-11.45 17.95-4.78 3.99-10.02 5.45-15.75 4.37M483.08 635.26c-.44-.08-.66-.59-.66-1.54V472.95l-21.36-2.79c-.54-.07-.82-.57-.82-1.51l.16-31.32c0-.74.22-1.09.65-1.04l63.37 7.5c.57.07.85.49.85 1.25v32.07c0 .96-.23 1.4-.68 1.34l-22.17-2.89.17 161.95c0 .95-.23 1.38-.67 1.29ZM534.35 644.91c-.46-.09-.69-.61-.69-1.57l.34-197.27c0-.76.23-1.12.69-1.07l35.13 4.16c6.35.75 12.22 4.03 17.62 9.84 5.41 5.84 9.74 13.32 12.98 22.44q4.86 13.725 4.86 30.21c0 7.26-.66 13.7-1.98 19.29q-1.98 8.385-4.68 14.01c-1.79 3.74-3.41 6.48-4.84 8.22 6.46 12.74 9.69 27.08 9.69 42.97l.18 60.35c0 .98-.3 1.41-.9 1.3l-20.2-3.8c-.47-.09-.71-.43-.71-1.01v-60.45c0-7.01-1.51-13.34-4.52-18.98-3.01-5.63-6.68-8.78-11.02-9.47l-11.54-1.83-.17 85.03c0 .97-.23 1.4-.7 1.32Zm20.41-117.39 15.06 2.2c3.64.53 6.88-1.23 9.71-5.29q4.26-6.105 4.26-15.75c0-6.23-1.39-11.78-4.17-16.63-2.77-4.84-6.04-7.5-9.8-7.99l-15.06-1.96ZM619.59 660.95c-.49-.09-.73-.63-.73-1.62l.18-203.16c0-.79.24-1.15.73-1.1l59.65 7.06c.5.06.76.59.76 1.6v33.81c0 .81-.26 1.18-.76 1.11l-38.37-5.01v46.49l38.37 5.61c.5.07.76.52.76 1.32l.19 34.15c0 .81-.25 1.17-.76 1.09l-38.56-6.1v52.15l38.56 6.78c.5.09.76.64.76 1.64v34.42c0 .81-.25 1.16-.76 1.06Z" class="st2"/><path d="M687.46 773.67c-7.32-1.19-13.85-4.95-19.61-11.27-5.74-6.3-10.24-14.41-13.51-24.34-3.26-9.91-4.89-20.72-4.89-32.45V690.7c0-.81.25-1.18.77-1.11l21.81 3.95c.52.07.78.62.78 1.64v13.76c0 7.54 1.36 13.86 4.09 18.95 2.73 5.11 6.25 7.98 10.57 8.63 3.93.59 7.35-1.46 10.24-6.17 2.9-4.71 4.35-10.47 4.35-17.26V466.46c0-.82.26-1.2.79-1.14l22.37 2.65c.54.06.8.62.8 1.65l.2 154.29c0 8.09 1.12 64.8-.66 96.95-.73 13.19-3.63 23.78-4.66 26.43-3.54 9.07-8.24 16.04-14.08 20.89-5.82 4.8-12.28 6.64-19.36 5.49M748.06 688.96q-.81-.15-.81-1.71l.41-214.01c0-1.04.27-1.53.81-1.46l22.88 2.7c.55.06.82.62.82 1.67v74.54l32.65-70.99c.42-.79.91-1.16 1.47-1.1l24.37 2.87c.57.07.71.51.43 1.33l-36.53 83.1 41.02 138.16c.28.91-.07 1.27-1.07 1.08l-25.9-4.85c-.7-.13-1.13-.63-1.26-1.51l-28.16-97.93-7.23 16.15v74.85c0 1.05-.28 1.52-.82 1.42Z" class="st2"/><path d="M1030.36 627.4 866.1 724.81c-1.08.89-2.58.27-2.62-1.09l-8.16-241.09c-.03-1.17-1.71-1.13-1.76.04l-6.54 243.7c-.04 1.13-1.1 2.03-2.15 1.82L743.79 707.9c-.95-.2-1.92.6-1.92 1.59v14.4c0 .63.41 1.16 1.01 1.3l112.37 25.12c1.37.37 2.91-.05 4.04-1.13l171.98-120.44c.82-.72-.04-1.99-.91-1.34M631.83 686.82 209.61 603.2c-.83-.16-1.67.41-1.65 1.14l.04 1.75c.01.46.36.84.88.95l421.98 94.18c1.05.23 2.14-.59 2.14-1.62v-11.42c-.01-.67-.48-1.23-1.17-1.36M135.64 584.53 48 565.5v1.06l86.85 20.1c.87.19 1.76-.39 1.75-1.14-.02-.48-.4-.88-.96-.99" class="st2"/></g></svg>