<svg xmlns="http://www.w3.org/2000/svg" xml:space="preserve" id="Layer_1" width="100%" x="0" y="0" viewBox="0 0 600 600"><path fill="#fff" d="M596.005 444.079c-2.33 19.244-6.975 37.35-25.801 46.132-26.94 12.565-59.31 3.91-67.967-30.748-2.645-10.588-4.021-21.771-4.059-32.689-.312-91.479-.307-182.96-.048-274.44.043-14.922 2.216-29.707 9.785-43.15 6.83-12.132 16.921-19.016 30.711-21.316 10.412-1.737 20.359-.875 29.822 3.369 14.717 6.601 22.004 19.302 25.367 34.236 1.934 8.588 2.866 17.542 3.047 26.356.428 20.82.034 41.656.222 62.484.039 4.339-1.235 5.92-5.675 5.77-8.488-.287-16.994-.079-25.492-.085-6.494-.005-6.912-.403-6.914-6.716-.006-24.828.043-49.656-.024-74.484-.029-10.529-7.833-15.928-16.766-11.757-5.167 2.412-6.064 7.412-6.098 12.068-.222 30.658-.148 61.32-.08 91.98.01 4.752 3.03 6.477 6.74 3.425 8.25-6.784 29.783-2.956 37.518 4.078 10.141 9.222 15.198 20.953 15.479 33.888.935 43.09.911 86.201 1.216 129.305.078 10.997.08 21.995-.034 32.992-.03 2.952-.615 5.898-.95 9.302M536 317.5v98.44c0 8.662-.29 17.337.113 25.98.229 4.893.42 10.383 5.557 13.245 8.963 4.995 17.321-.595 17.324-11.463.013-53.468.006-106.936.006-160.403 0-1 .09-2.01-.025-2.997-1.088-9.416-8.087-13.887-16.33-10.08-5.5 2.541-6.5 7.95-6.59 13.299-.183 10.99-.055 21.986-.055 33.979" data-index="1" style="opacity:1"/><path fill="#fff" d="M451.977 221c0-25.991.084-51.483-.087-76.973-.027-4.023-.89-8.123-1.934-12.036-1.495-5.603-6.05-6.347-11.015-5.992-4.714.337-7.686 2.979-8.8 7.369-.761 2.998-1.083 6.182-1.094 9.285-.086 23.658-.133 47.318.026 70.975.031 4.699-1.516 6.594-6.326 6.442A387 387 0 0 0 398.26 220.07c-4.86.155-6.357-1.862-6.325-6.504.148-21.492-.455-43.002.24-64.472.498-15.375 2.78-30.611 11.807-43.926 9.939-14.658 27.602-19.615 43.769-17.594 25.465 3.183 36.748 24.502 39.105 45.064 1.448 12.628 1.913 25.413 2.053 38.136.297 26.82.227 53.648.053 80.47-.18 27.756-8.988 52.309-27.134 73.623-9.353 10.986-18.075 22.567-26.356 34.387-4.966 7.089-6.617 15.565-6.537 24.404.198 21.99.058 43.984.07 65.977.002 5.857 1.448 7.35 7.206 7.358 15.494.022 30.99.13 46.483-.066 4.759-.06 6.511 1.663 6.376 6.403-.247 8.657-.217 17.329-.009 25.988.105 4.376-1.937 6.017-5.942 6.017-28.49 0-56.98-.015-85.47.011-4.23.004-5.716-1.987-5.705-6.163.095-38.82-.453-77.649.25-116.456.413-22.782 8.237-43.593 22.34-61.673 8.925-11.444 18.716-22.222 27.47-33.788 7.215-9.531 10.512-20.62 10.03-32.776-.305-7.652-.057-15.326-.057-23.49" data-index="2" style="opacity:1"/><path fill="#fff" d="M366.043 433.86c4.644 17.383 9.447 34.3 13.768 51.34 1.81 7.14-1.589 10.774-8.921 10.774-7.83 0-15.676-.31-23.483.109-5.291.284-7.275-2.415-8.418-6.807a37779 37779 0 0 0-19.01-72.735c-.395-1.503-1.031-2.943-1.97-5.577 0 26.734.044 52.219-.03 77.703-.02 6.697-.832 7.33-7.451 7.332-5.164.003-10.331-.101-15.492.039-3.083.083-4.698-1.294-5.007-4.222-.415-3.932-.983-7.879-.986-11.82q-.088-109.946.004-219.893c.003-3.438.352-6.963 1.213-10.273.393-1.512 2.202-3.192 3.752-3.774 6.045-2.268 12.396-3.763 18.337-6.251 4.848-2.031 5.538.491 5.615 4.055.168 7.66.17 15.323.181 22.985.023 15.991.007 31.982.615 48.11q4.12-16.952 8.234-33.908c3.644-15.02 7.15-30.075 11.069-45.022.608-2.32 2.693-5.22 4.792-6.019 9.924-3.775 20.09-6.913 31.62-10.762.099 5.371 1.188 10.218.11 14.522-9.598 38.345-19.562 76.599-29.47 114.866-1.527 5.902 1.12 11.09 2.544 16.46 6.044 22.804 12.22 45.572 18.384 68.769" data-index="3" style="opacity:1"/><path fill="#fefffe" d="M16.07 91.886c13.322 0 26.17.41 38.98-.103 16.324-.655 22.488 8.4 25.644 18.381 2.872 9.083 3.913 18.797 5.206 28.309.868 6.39 1.183 12.922 1.013 19.372-.33 12.49-1.721 24.855-7.04 36.433-.385.84-.472 2.262-.014 2.976 6.26 9.772 7.455 20.855 8.052 31.972.455 8.474.588 17.028-.018 25.483-1.113 15.53-3.019 30.908-10.697 45.012-4.598 8.446-11.198 14.05-20.153 16.968-15.172 4.945-30.452 9.564-45.57 14.666-3.968 1.339-5.128.038-5.475-3.437-.313-3.121-.833-6.246-.835-9.37-.047-70.987-.036-141.975-.036-212.962 0-1.333-.216-2.71.04-3.993 2.225-11.122-.26-9.643 10.902-9.707m43.57 151.772c-.217-2.132-.393-4.268-.658-6.394-.69-5.53-2.79-7.165-8.118-6.248-3.525.606-7.068 1.189-10.52 2.1-.94.247-2.24 1.633-2.254 2.515-.159 10.047-.1 20.098-.1 30.258 4.63-1.053 8.711-1.99 12.797-2.91 3.977-.894 6.921-2.69 7.331-7.294.334-3.74 1.02-7.447 1.522-12.027m-1.644-84.894c-.343-2.264-.147-4.822-1.177-6.712-1.096-2.012-3.272-4.678-5.118-4.793-4.47-.278-9.024.761-13.4 1.253v29.649c4.762-.413 9.229-.507 13.558-1.33 1.548-.295 3.595-2.14 3.972-3.64 1.111-4.412 1.499-9.006 2.165-14.427" data-index="4" style="opacity:1"/><path fill="#fefffe" d="M269.003 434.104c-2.058 18.051-4.812 35.456-15.137 50.524-10.744 15.678-26.468 15.347-36.878-.636-7.02-10.78-9.688-23.071-11.864-35.4-1.572-8.907-2.021-18.012-2.927-27.033-.15-1.487-.32-3.04-.061-4.488 1.457-8.175.435-7.933 7.873-8.154 3.572-.107 7.18-.81 10.661-1.686 3.866-.973 4.96.8 5.364 4.156.546 4.546.778 9.258 2.246 13.52.934 2.71 3.866 4.733 5.902 7.064 2.285-2.062 5.833-3.74 6.604-6.264 1.836-6.007 3.18-12.403 3.267-18.662.349-25.123.144-50.253.144-76.28l-34.137 7.707c-.408-3.605-1-6.487-1.017-9.373-.093-15.825 0-31.652-.07-47.478-.023-5.257 1.669-8.662 7.236-10.385 17.567-5.436 34.993-11.33 53.258-17.303.538 2.304 1.468 4.44 1.471 6.58.081 51.143.135 102.287-.025 153.43-.02 6.57-1.243 13.136-1.91 20.161" data-index="5" style="opacity:1"/><path fill="#fff" d="M194 489.619c-.102 4.596-1.71 6.581-6.355 6.48-13.154-.284-26.324-.33-39.474.032-4.317.118-5.539-1.93-6.087-5.3-.237-1.462-.082-2.991-.082-4.49q-.003-90.705-.001-181.408c0-8.759.361-9.286 8.428-11.884 12.607-4.06 25.308-7.85 37.783-12.279 4.324-1.536 4.728.545 4.743 3.451.088 16.825.016 33.65.063 50.474.012 4.027-2.21 5.56-5.828 6.339-8.717 1.876-17.379 4.004-26.036 6.024v18.4l26.368-5.322c.489 2.771 1.374 5.572 1.41 8.384.158 12.159.068 24.32.068 36.48 0 11.773-.858 12.515-12.679 13.061-5.035.233-10.038 1.143-15.08 1.748v18.429c6.644-.606 12.999-1.215 19.36-1.753 3.465-.293 7.048-1.038 10.357-.412 1.32.25 2.88 3.634 2.91 5.613.236 15.821.132 31.648.131 47.933" data-index="6" style="opacity:1"/><path fill="#fff" d="M120.716 152.114c-4.825-.001-9.44.336-14.024.917-3.73.473-5.68-.906-5.682-4.724-.01-17.327-.026-34.655.014-51.983.008-3.119 1.386-4.547 4.872-4.512C122.89 91.98 139.886 91.986 156.878 91.811c3.67-.037 5.124 1.327 5.123 4.779-.008 15.328.05 30.657-.043 45.985-.022 3.565-1.5 5.712-5.765 5.541-3.555-.142-7.151.736-10.957 1.189v81.015l15.513-3.374c.408 1.876 1.18 3.812 1.194 5.753.103 14.661.029 29.323.074 43.985.013 4.011-1.257 6.395-5.583 7.748-16.727 5.227-33.307 10.923-49.94 16.452-3.753 1.247-5.504-.13-5.5-4.041.017-16.995.062-33.99-.033-50.983-.022-4.083 2.24-5.904 5.716-6.726 3.492-.825 7.022-1.505 10.559-2.117 2.602-.451 3.847-1.501 3.832-4.486-.136-26.657-.108-53.315-.352-80.417" data-index="7" style="opacity:1"/><path fill="#fff" d="M88 351c0-9.997-.036-19.495.012-28.992.037-7.467.99-8.785 7.668-10.934 5.691-1.832 11.435-3.51 17.084-5.46 4.41-1.522 7.598-.304 10.17 3.474 5.14 7.55 7.136 16.254 7.896 24.98 1.28 14.682 2.231 29.469 1.964 44.187-.264 14.592-1.702 29.192-6.008 43.373-1.025 3.374-.197 7.431.268 11.112 1.458 11.555 3.296 23.062 4.7 34.623.99 8.166 1.498 16.39 2.254 24.587.278 3.021-.995 4.282-4.044 4.083-2.488-.163-5.065-.404-7.482.042-5.44 1.006-7.034-2.02-7.461-6.49-1.362-14.268-2.658-28.541-4.044-42.806-.333-3.43-.919-6.834-1.428-10.535h-5.397c0 9.492.02 18.784-.005 28.076-.024 9.164-.2 18.328-.084 27.49.043 3.356-1.285 4.417-4.457 4.232-3.29-.191-6.599-.042-9.99-.042-.589-2.269-1.502-4.153-1.506-6.038-.095-46.154-.094-92.308-.11-138.962m26.86 11.114-1.856-6.193-8.657 2.473v27.26c7.927.779 10.214-1.03 10.618-8.744.243-4.625.035-9.273-.105-14.796" data-index="8" style="opacity:1"/><path fill="#fff" d="M199 203.99v14.145c7.032-1.597 13.592-2.847 20-4.635 3.587-1 5.018-.197 5.01 3.485-.029 13.822.11 27.646-.165 41.462-.035 1.785-1.766 4.582-3.332 5.126-12.585 4.377-25.315 8.333-38.013 12.38-.592.189-1.298.024-1.908.024-2.276-8.605-2.206-174.895.133-184.084 4.868 0 9.841.06 14.812-.02 3.49-.056 3.48 2.219 3.476 4.711-.027 16.32-.013 32.639-.013 48.958Z" data-index="9"/><path fill="#fefffe" d="M248.108 203.582c1.461 1.767 2.837 3.127 4.213 4.487 1.49-1.591 3.798-2.963 4.296-4.82 1.005-3.748 1.366-7.757 1.395-11.662.134-17.625.058-35.25.058-52.969l-22.65 1.694c-.819-16.262-.29-32.015-.393-48.1h37.974v5.285c0 33.306.297 66.616-.144 99.916-.18 13.568-1.77 27.164-6.89 39.983-1.372 3.437-2.855 7.01-5.105 9.881-5.733 7.312-14.357 11.125-20.75-.62-3.964-7.283-5.975-15.777-7.942-23.95-1.452-6.03-1.576-12.41-1.972-18.654-.196-3.083.332-6.211.553-9.63l15.432-3.174c.61 3.946 1.225 7.936 1.925 12.332" data-index="10"/><path fill="#fff" d="M314.073 97.117c.015 11.458.015 22.427.015 33.7l-18.872 2.114v13.037c4.278-.438 8.448-.377 12.326-1.41 3.324-.887 4.42.02 4.435 3.03.048 10.162.16 20.327-.15 30.48-.041 1.366-2.13 3.348-3.667 3.862-4.152 1.39-8.519 2.14-12.965 3.183v12.976c5.362-1.183 10.627-2 15.654-3.576 3.292-1.033 4.064.49 4.09 2.888.12 10.66.174 21.325-.081 31.98-.037 1.556-1.547 3.968-2.921 4.46-9.303 3.323-18.753 6.236-28.848 9.506-.4-2.15-1.043-3.993-1.045-5.838-.055-46.642-.017-93.284-.09-139.926-.007-4.086 1.065-5.981 5.65-5.795 8.612.348 17.248.1 26.197.1.1 1.845.179 3.292.272 5.229" data-index="11"/><path fill="#fff" d="M53 444v-66.266l-10.717 2.363c-.429-2.815-1.19-5.61-1.224-8.415-.141-11.32-.074-22.643-.054-33.964.015-8.288.125-8.464 7.88-11.02 9.014-2.971 18.121-5.683 27.045-8.905 3.56-1.285 4.078.055 4.075 2.965-.013 15.65-.032 31.3.018 46.95.009 2.76-.99 4.185-3.872 4.608-3.009.442-5.942 1.402-9.151 2.196v112.399c0 9.13 0 9.13-9.165 9.09-.995-.005-1.99-.001-3.64-.001-.4-3.364-1.11-6.701-1.14-10.044C52.925 472.138 53 458.319 53 444" data-index="12" style="opacity:1"/><path fill="#fefffe" d="M12.169 430.726c-5.573-8.24-6.521-17.442-7.046-26.542-.554-9.627-.914-19.395.093-28.948 1.054-9.988 3.763-19.81 5.935-29.662.374-1.7 1.52-3.308 2.575-4.765 4.98-6.873 11.074-6.691 14.01 1.178 2.93 7.851 4.764 16.223 6.086 24.525.924 5.8.178 11.867.178 17.99-1.891.503-3.741 1.027-5.607 1.485-3.198.785-6.49 1.884-7.213-3.232-.056-.394-3.173-1.12-3.82-.534-2.985 2.703-1.76 10.374 2.147 11.81 9.969 3.662 13.13 12.021 14.31 21.078 1.388 10.64 2.23 21.465 1.968 32.177-.307 12.572-1.194 25.266-5.878 37.213-1.12 2.854-2.617 5.685-4.502 8.086-3.946 5.03-10.714 4.967-13.448-.752-3.113-6.509-5.492-13.607-6.737-20.704-1.305-7.437-.828-15.18-1.253-22.783-.146-2.6.654-4.576 3.386-4.208 2.647.355 6.338-2.288 7.822 2.676.567 1.897 2.955 3.249 4.513 4.85 1.104-2.121 2.744-4.133 3.2-6.385.958-4.734-1.01-8.193-5.56-10.319-1.853-.866-3.3-2.599-5.16-4.234" data-index="13"/><path fill="#fff" d="M330.74 200v-65.176c-.534-.396-.774-.729-1.026-.738-9.713-.37-9.714-.365-9.714-10.143 0-8.327-.02-16.653.007-24.98.022-6.924.188-7.073 6.77-7.075C334.267 91.886 341.756 91.888 350 91.888v14.903c0 6.495-.308 13.009.102 19.477.3 4.723-1.304 6.482-5.889 5.75-.809-.128-1.656-.018-3.213-.018v83.832c0 9.613 0 9.613-10.26 11.65Z" data-index="14"/><path fill="#fff" d="M372 205.854c-.002 9.09-.497 9.7-9.011 11.032v-87.023c-1.346.329-2.13.526-2.916.712-4.98 1.176-6.044.414-6.062-4.552-.036-9.832.097-19.666-.07-29.495-.058-3.35.783-4.875 4.454-4.708 5.655.258 11.335.217 16.993.01 3.193-.117 4.63 1.011 4.617 4.213-.04 9.331-.074 18.664.015 27.995.052 5.484-3.598 5.272-8.02 4.851Z" data-index="15"/></svg>